<?xml version="1.0" encoding="utf-8"?>
<!-- Generator: Adobe Illustrator 16.0.0, SVG Export Plug-In . SVG Version: 6.00 Build 0)  -->
<!DOCTYPE svg PUBLIC "-//W3C//DTD SVG 1.1//EN" "http://www.w3.org/Graphics/SVG/1.1/DTD/svg11.dtd">
<svg version="1.1" xmlns="http://www.w3.org/2000/svg" xmlns:xlink="http://www.w3.org/1999/xlink" x="0px" y="0px" width="500px"
	 height="500px" viewBox="0 0 500 500" enable-background="new 0 0 500 500" xml:space="preserve">
<g id="Layer_1">
	<circle fill="#FFFFFF" stroke="#8C8C8C" stroke-miterlimit="10" cx="243.364" cy="218.1" r="45"/>
	<path fill="none" stroke="#F70000" stroke-miterlimit="10" d="M207.399,192.154c11.22-1.535,24.746,10.607,31.391,28.863
		c6.555,18.008,4.155,35.766-5.111,42.038"/>
	<g>
		<line fill="none" stroke="#FF0000" stroke-miterlimit="10" x1="210.549" y1="194.638" x2="217.297" y2="193.794"/>
		<line fill="none" stroke="#FF0000" stroke-miterlimit="10" x1="216.465" y1="186.693" x2="217.309" y2="193.441"/>
	</g>
</g>
<g id="Layer_2">
	<line fill="none" stroke="#FF0000" stroke-miterlimit="10" x1="220.549" y1="201.639" x2="227.297" y2="200.795"/>
	<line fill="none" stroke="#FF0000" stroke-miterlimit="10" x1="226.465" y1="193.693" x2="227.309" y2="200.441"/>
	<line fill="none" stroke="#FF0000" stroke-miterlimit="10" x1="225.549" y1="209.639" x2="232.297" y2="208.795"/>
	<line fill="none" stroke="#FF0000" stroke-miterlimit="10" x1="231.465" y1="201.693" x2="232.309" y2="208.441"/>
	<line fill="none" stroke="#FF0000" stroke-miterlimit="10" x1="230.901" y1="216.981" x2="237.693" y2="217.34"/>
	<line fill="none" stroke="#FF0000" stroke-miterlimit="10" x1="238.125" y1="210.202" x2="237.766" y2="216.994"/>
	<line fill="none" stroke="#FF0000" stroke-miterlimit="10" x1="233.901" y1="224.981" x2="240.693" y2="225.34"/>
	<line fill="none" stroke="#FF0000" stroke-miterlimit="10" x1="241.125" y1="218.202" x2="240.766" y2="224.994"/>
	<line fill="none" stroke="#FF0000" stroke-miterlimit="10" x1="235.901" y1="233.981" x2="242.693" y2="234.34"/>
	<line fill="none" stroke="#FF0000" stroke-miterlimit="10" x1="243.125" y1="227.202" x2="242.766" y2="233.994"/>
	<line fill="none" stroke="#FF0000" stroke-miterlimit="10" x1="236.14" y1="240.254" x2="242.646" y2="242.237"/>
	<line fill="none" stroke="#FF0000" stroke-miterlimit="10" x1="244.783" y1="235.414" x2="242.799" y2="241.919"/>
	<line fill="none" stroke="#FF0000" stroke-miterlimit="10" x1="236.038" y1="249.188" x2="241.551" y2="253.171"/>
	<line fill="none" stroke="#FF0000" stroke-miterlimit="10" x1="245.783" y1="247.407" x2="241.799" y2="252.919"/>
	<g>
		<path fill="none" stroke="#F70000" stroke-miterlimit="10" d="M279.783,245.594c-11.22,1.535-24.746-10.607-31.391-28.863
			c-6.555-18.008-4.155-35.766,5.111-42.037"/>
		<g>
			<line fill="none" stroke="#FF0000" stroke-miterlimit="10" x1="276.634" y1="243.109" x2="269.886" y2="243.953"/>
			<line fill="none" stroke="#FF0000" stroke-miterlimit="10" x1="270.718" y1="251.055" x2="269.874" y2="244.307"/>
		</g>
		<line fill="none" stroke="#FF0000" stroke-miterlimit="10" x1="266.634" y1="236.109" x2="259.886" y2="236.953"/>
		<line fill="none" stroke="#FF0000" stroke-miterlimit="10" x1="260.718" y1="244.055" x2="259.874" y2="237.307"/>
		<line fill="none" stroke="#FF0000" stroke-miterlimit="10" x1="261.634" y1="228.109" x2="254.886" y2="228.953"/>
		<line fill="none" stroke="#FF0000" stroke-miterlimit="10" x1="255.718" y1="236.055" x2="254.874" y2="229.307"/>
		<line fill="none" stroke="#FF0000" stroke-miterlimit="10" x1="256.281" y1="220.767" x2="249.489" y2="220.408"/>
		<line fill="none" stroke="#FF0000" stroke-miterlimit="10" x1="249.058" y1="227.546" x2="249.417" y2="220.754"/>
		<line fill="none" stroke="#FF0000" stroke-miterlimit="10" x1="253.281" y1="212.767" x2="246.489" y2="212.408"/>
		<line fill="none" stroke="#FF0000" stroke-miterlimit="10" x1="246.058" y1="219.546" x2="246.417" y2="212.754"/>
		<line fill="none" stroke="#FF0000" stroke-miterlimit="10" x1="251.281" y1="203.767" x2="244.489" y2="203.408"/>
		<line fill="none" stroke="#FF0000" stroke-miterlimit="10" x1="244.058" y1="210.546" x2="244.417" y2="203.754"/>
		<line fill="none" stroke="#FF0000" stroke-miterlimit="10" x1="251.043" y1="197.494" x2="244.537" y2="195.511"/>
		<line fill="none" stroke="#FF0000" stroke-miterlimit="10" x1="242.399" y1="202.334" x2="244.384" y2="195.829"/>
		<line fill="none" stroke="#FF0000" stroke-miterlimit="10" x1="251.146" y1="188.561" x2="245.632" y2="184.577"/>
		<line fill="none" stroke="#FF0000" stroke-miterlimit="10" x1="241.399" y1="190.341" x2="245.384" y2="184.829"/>
	</g>
</g>
</svg>
