<?xml version="1.0" encoding="utf-8"?>
<!-- Generator: Adobe Illustrator 16.0.0, SVG Export Plug-In . SVG Version: 6.00 Build 0)  -->
<!DOCTYPE svg PUBLIC "-//W3C//DTD SVG 1.1//EN" "http://www.w3.org/Graphics/SVG/1.1/DTD/svg11.dtd">
<svg version="1.1" id="Layer_1" xmlns="http://www.w3.org/2000/svg" xmlns:xlink="http://www.w3.org/1999/xlink" x="0px" y="0px"
	 width="500px" height="500px" viewBox="0 0 500 500" enable-background="new 0 0 500 500" xml:space="preserve">
<g>
	<path fill="none" stroke="#000000" stroke-miterlimit="10" d="M147.584,164.927c-0.6-1.465-0.915-2.981-0.915-4.535
		c0-12.426,20.147-22.5,45-22.5s45,10.074,45,22.5c0,1.271-0.211,2.518-0.616,3.731"/>
	<path fill="none" stroke="#000000" stroke-miterlimit="10" d="M236.053,164.124c-3.555,10.65-22.073,18.769-44.384,18.769
		c-21.747,0-39.89-7.713-44.085-17.965"/>
	<line fill="none" stroke="#000000" stroke-miterlimit="10" x1="146.5" y1="160" x2="146.5" y2="186"/>
	<line fill="none" stroke="#000000" stroke-miterlimit="10" x1="236.5" y1="160" x2="236.5" y2="186"/>
	<path fill="none" stroke="#000000" stroke-miterlimit="10" d="M236.386,185.124c-3.608,10.65-22.405,18.769-45.052,18.769
		c-22.074,0-40.491-7.713-44.75-17.965"/>
</g>
</svg>
